<svg width="659" height="461" viewBox="0 0 659 461" fill="none" xmlns="http://www.w3.org/2000/svg">
<g opacity="0.4">
<mask id="mask0_608_1284" style="mask-type:alpha" maskUnits="userSpaceOnUse" x="0" y="0" width="659" height="461">
<rect x="659" y="0.305664" width="460" height="659" transform="rotate(90 659 0.305664)" fill="#C4C4C4"/>
</mask>
<g mask="url(#mask0_608_1284)">
<rect x="805.493" y="21.0664" width="1.07194" height="828.454" transform="rotate(105 805.493 21.0664)" fill="black"/>
<rect x="803.908" y="26.9824" width="1.07194" height="828.454" transform="rotate(105 803.908 26.9824)" fill="black"/>
<rect x="802.322" y="32.8979" width="1.07194" height="828.454" transform="rotate(105 802.322 32.8979)" fill="black"/>
<rect x="810.249" y="3.31396" width="1.07194" height="828.454" transform="rotate(105 810.249 3.31396)" fill="black"/>
<rect x="800.737" y="38.814" width="1.07194" height="828.454" transform="rotate(105 800.737 38.814)" fill="black"/>
<rect x="808.664" y="9.22998" width="1.07194" height="828.454" transform="rotate(105 808.664 9.22998)" fill="black"/>
<rect x="799.151" y="44.7295" width="1.07194" height="828.454" transform="rotate(105 799.151 44.7295)" fill="black"/>
<rect x="807.079" y="15.1484" width="1.07194" height="828.454" transform="rotate(105 807.079 15.1484)" fill="black"/>
<rect x="797.566" y="50.6479" width="1.07194" height="828.454" transform="rotate(105 797.566 50.6479)" fill="black"/>
<rect x="795.981" y="56.5635" width="1.07194" height="828.454" transform="rotate(105 795.981 56.5635)" fill="black"/>
<rect x="786.468" y="92.0635" width="1.07194" height="828.454" transform="rotate(105 786.468 92.0635)" fill="black"/>
<rect x="794.396" y="62.4819" width="1.07194" height="828.454" transform="rotate(105 794.396 62.4819)" fill="black"/>
<rect x="784.883" y="97.979" width="1.07194" height="828.454" transform="rotate(105 784.883 97.979)" fill="black"/>
<rect x="792.81" y="68.3979" width="1.07194" height="828.454" transform="rotate(105 792.81 68.3979)" fill="black"/>
<rect x="783.298" y="103.9" width="1.07194" height="828.454" transform="rotate(105 783.298 103.9)" fill="black"/>
<rect x="791.225" y="74.3159" width="1.07194" height="828.454" transform="rotate(105 791.225 74.3159)" fill="black"/>
<rect x="781.713" y="109.816" width="1.07194" height="828.454" transform="rotate(105 781.713 109.816)" fill="black"/>
<rect x="789.639" y="80.2319" width="1.07194" height="828.454" transform="rotate(105 789.639 80.2319)" fill="black"/>
<rect x="780.127" y="115.731" width="1.07194" height="828.454" transform="rotate(105 780.127 115.731)" fill="black"/>
<rect x="788.054" y="86.1475" width="1.07194" height="828.454" transform="rotate(105 788.054 86.1475)" fill="black"/>
<rect x="778.542" y="121.647" width="1.07194" height="828.454" transform="rotate(105 778.542 121.647)" fill="black"/>
<rect x="776.956" y="127.565" width="1.07194" height="828.454" transform="rotate(105 776.956 127.565)" fill="black"/>
<rect x="767.444" y="163.065" width="1.07194" height="828.454" transform="rotate(105 767.444 163.065)" fill="black"/>
<rect x="775.371" y="133.482" width="1.07194" height="828.454" transform="rotate(105 775.371 133.482)" fill="black"/>
<rect x="765.859" y="168.981" width="1.07194" height="828.454" transform="rotate(105 765.859 168.981)" fill="black"/>
<rect x="773.786" y="139.397" width="1.07194" height="828.454" transform="rotate(105 773.786 139.397)" fill="black"/>
<rect x="764.273" y="174.897" width="1.07194" height="828.454" transform="rotate(105 764.273 174.897)" fill="black"/>
<rect x="772.201" y="145.313" width="1.07194" height="828.454" transform="rotate(105 772.201 145.313)" fill="black"/>
<rect x="762.688" y="180.813" width="1.07194" height="828.454" transform="rotate(105 762.688 180.813)" fill="black"/>
<rect x="770.615" y="151.229" width="1.07194" height="828.454" transform="rotate(105 770.615 151.229)" fill="black"/>
<rect x="761.103" y="186.731" width="1.07194" height="828.454" transform="rotate(105 761.103 186.731)" fill="black"/>
<rect x="769.03" y="157.149" width="1.07194" height="828.454" transform="rotate(105 769.03 157.149)" fill="black"/>
<rect x="759.518" y="192.647" width="1.07194" height="828.454" transform="rotate(105 759.518 192.647)" fill="black"/>
<rect x="757.932" y="198.562" width="1.07194" height="828.454" transform="rotate(105 757.932 198.562)" fill="black"/>
<rect x="748.42" y="234.062" width="1.07194" height="828.454" transform="rotate(105 748.42 234.062)" fill="black"/>
<rect x="756.347" y="204.481" width="1.07194" height="828.454" transform="rotate(105 756.347 204.481)" fill="black"/>
<rect x="746.835" y="239.98" width="1.07194" height="828.454" transform="rotate(105 746.835 239.98)" fill="black"/>
<rect x="754.761" y="210.399" width="1.07194" height="828.454" transform="rotate(105 754.761 210.399)" fill="black"/>
<rect x="745.249" y="245.896" width="1.07194" height="828.454" transform="rotate(105 745.249 245.896)" fill="black"/>
<rect x="753.176" y="216.315" width="1.07194" height="828.454" transform="rotate(105 753.176 216.315)" fill="black"/>
<rect x="743.664" y="251.815" width="1.07194" height="828.454" transform="rotate(105 743.664 251.815)" fill="black"/>
<rect x="751.591" y="222.231" width="1.07194" height="828.454" transform="rotate(105 751.591 222.231)" fill="black"/>
<rect x="742.078" y="257.73" width="1.07194" height="828.454" transform="rotate(105 742.078 257.73)" fill="black"/>
<rect x="750.006" y="228.146" width="1.07194" height="828.454" transform="rotate(105 750.006 228.146)" fill="black"/>
<rect x="740.493" y="263.646" width="1.07194" height="828.454" transform="rotate(105 740.493 263.646)" fill="black"/>
<rect x="739.114" y="268.797" width="1.07194" height="828.454" transform="rotate(105 739.114 268.797)" fill="black"/>
<rect x="729.602" y="304.294" width="1.07194" height="828.454" transform="rotate(105 729.602 304.294)" fill="black"/>
<rect x="737.528" y="274.713" width="1.07194" height="828.454" transform="rotate(105 737.528 274.713)" fill="black"/>
<rect x="728.016" y="310.215" width="1.07194" height="828.454" transform="rotate(105 728.016 310.215)" fill="black"/>
<rect x="735.943" y="280.628" width="1.07194" height="828.454" transform="rotate(105 735.943 280.628)" fill="black"/>
<rect x="726.431" y="316.131" width="1.07194" height="828.454" transform="rotate(105 726.431 316.131)" fill="black"/>
<rect x="734.358" y="286.547" width="1.07194" height="828.454" transform="rotate(105 734.358 286.547)" fill="black"/>
<rect x="724.845" y="322.046" width="1.07194" height="828.454" transform="rotate(105 724.845 322.046)" fill="black"/>
<rect x="732.772" y="292.462" width="1.07194" height="828.454" transform="rotate(105 732.772 292.462)" fill="black"/>
<rect x="723.26" y="327.962" width="1.07194" height="828.454" transform="rotate(105 723.26 327.962)" fill="black"/>
<rect x="731.187" y="298.378" width="1.07194" height="828.454" transform="rotate(105 731.187 298.378)" fill="black"/>
<rect x="721.674" y="333.878" width="1.07194" height="828.454" transform="rotate(105 721.674 333.878)" fill="black"/>
<rect x="720.089" y="339.796" width="1.07194" height="828.454" transform="rotate(105 720.089 339.796)" fill="black"/>
<rect x="710.577" y="375.296" width="1.07194" height="828.454" transform="rotate(105 710.577 375.296)" fill="black"/>
<rect x="718.504" y="345.712" width="1.07194" height="828.454" transform="rotate(105 718.504 345.712)" fill="black"/>
<rect x="708.992" y="381.212" width="1.07194" height="828.454" transform="rotate(105 708.992 381.212)" fill="black"/>
<rect x="716.919" y="351.628" width="1.07194" height="828.454" transform="rotate(105 716.919 351.628)" fill="black"/>
<rect x="707.407" y="387.128" width="1.07194" height="828.454" transform="rotate(105 707.407 387.128)" fill="black"/>
<rect x="715.333" y="357.544" width="1.07194" height="828.454" transform="rotate(105 715.333 357.544)" fill="black"/>
<rect x="705.821" y="393.046" width="1.07194" height="828.454" transform="rotate(105 705.821 393.046)" fill="black"/>
<rect x="713.748" y="363.46" width="1.07194" height="828.454" transform="rotate(105 713.748 363.46)" fill="black"/>
<rect x="704.236" y="398.962" width="1.07194" height="828.454" transform="rotate(105 704.236 398.962)" fill="black"/>
<rect x="712.163" y="369.38" width="1.07194" height="828.454" transform="rotate(105 712.163 369.38)" fill="black"/>
<rect x="702.65" y="404.878" width="1.07194" height="828.454" transform="rotate(105 702.65 404.878)" fill="black"/>
<rect x="701.065" y="410.796" width="1.07194" height="828.454" transform="rotate(105 701.065 410.796)" fill="black"/>
<rect x="691.553" y="446.293" width="1.07194" height="828.454" transform="rotate(105 691.553 446.293)" fill="black"/>
<rect x="699.48" y="416.712" width="1.07194" height="828.454" transform="rotate(105 699.48 416.712)" fill="black"/>
<rect x="689.968" y="452.211" width="1.07194" height="828.454" transform="rotate(105 689.968 452.211)" fill="black"/>
<rect x="697.894" y="422.63" width="1.07194" height="828.454" transform="rotate(105 697.894 422.63)" fill="black"/>
<rect x="688.382" y="458.13" width="1.07194" height="828.454" transform="rotate(105 688.382 458.13)" fill="black"/>
<rect x="696.309" y="428.546" width="1.07194" height="828.454" transform="rotate(105 696.309 428.546)" fill="black"/>
<rect x="686.797" y="464.045" width="1.07194" height="828.454" transform="rotate(105 686.797 464.045)" fill="black"/>
<rect x="694.724" y="434.462" width="1.07194" height="828.454" transform="rotate(105 694.724 434.462)" fill="black"/>
<rect x="685.212" y="469.961" width="1.07194" height="828.454" transform="rotate(105 685.212 469.961)" fill="black"/>
<rect x="693.138" y="440.377" width="1.07194" height="828.454" transform="rotate(105 693.138 440.377)" fill="black"/>
<rect x="683.626" y="475.88" width="1.07194" height="828.454" transform="rotate(105 683.626 475.88)" fill="black"/>
<rect x="682.041" y="481.795" width="1.07194" height="828.454" transform="rotate(105 682.041 481.795)" fill="black"/>
<rect x="672.529" y="517.295" width="1.07194" height="828.454" transform="rotate(105 672.529 517.295)" fill="black"/>
<rect x="680.455" y="487.711" width="1.07194" height="828.454" transform="rotate(105 680.455 487.711)" fill="black"/>
<rect x="670.943" y="523.211" width="1.07194" height="828.454" transform="rotate(105 670.943 523.211)" fill="black"/>
<rect x="678.87" y="493.627" width="1.07194" height="828.454" transform="rotate(105 678.87 493.627)" fill="black"/>
<rect x="669.358" y="529.129" width="1.07194" height="828.454" transform="rotate(105 669.358 529.129)" fill="black"/>
<rect x="677.285" y="499.542" width="1.07194" height="828.454" transform="rotate(105 677.285 499.542)" fill="black"/>
<rect x="667.773" y="535.045" width="1.07194" height="828.454" transform="rotate(105 667.773 535.045)" fill="black"/>
<rect x="675.699" y="505.464" width="1.07194" height="828.454" transform="rotate(105 675.699 505.464)" fill="black"/>
<rect x="666.187" y="540.96" width="1.07194" height="828.454" transform="rotate(105 666.187 540.96)" fill="black"/>
<rect x="674.114" y="511.379" width="1.07194" height="828.454" transform="rotate(105 674.114 511.379)" fill="black"/>
<rect x="664.602" y="546.876" width="1.07194" height="828.454" transform="rotate(105 664.602 546.876)" fill="black"/>
<rect x="663.016" y="552.792" width="1.07194" height="828.454" transform="rotate(105 663.016 552.792)" fill="black"/>
<rect x="653.504" y="588.295" width="1.07194" height="828.454" transform="rotate(105 653.504 588.295)" fill="black"/>
<rect x="661.431" y="558.713" width="1.07194" height="828.454" transform="rotate(105 661.431 558.713)" fill="black"/>
<rect x="651.919" y="594.21" width="1.07194" height="828.454" transform="rotate(105 651.919 594.21)" fill="black"/>
<rect x="659.846" y="564.629" width="1.07194" height="828.454" transform="rotate(105 659.846 564.629)" fill="black"/>
<rect x="650.333" y="600.128" width="1.07194" height="828.454" transform="rotate(105 650.333 600.128)" fill="black"/>
<rect x="658.26" y="570.544" width="1.07194" height="828.454" transform="rotate(105 658.26 570.544)" fill="black"/>
<rect x="648.748" y="606.045" width="1.07194" height="828.454" transform="rotate(105 648.748 606.045)" fill="black"/>
<rect x="656.675" y="576.461" width="1.07194" height="828.454" transform="rotate(105 656.675 576.461)" fill="black"/>
<rect x="647.163" y="611.962" width="1.07194" height="828.454" transform="rotate(105 647.163 611.962)" fill="black"/>
<rect x="655.09" y="582.376" width="1.07194" height="828.454" transform="rotate(105 655.09 582.376)" fill="black"/>
<rect x="645.578" y="617.879" width="1.07194" height="828.454" transform="rotate(105 645.578 617.879)" fill="black"/>
<rect x="643.992" y="623.794" width="1.07194" height="828.454" transform="rotate(105 643.992 623.794)" fill="black"/>
<rect x="634.48" y="659.294" width="1.07194" height="828.454" transform="rotate(105 634.48 659.294)" fill="black"/>
<rect x="642.407" y="629.71" width="1.07194" height="828.454" transform="rotate(105 642.407 629.71)" fill="black"/>
<rect x="632.895" y="665.21" width="1.07194" height="828.454" transform="rotate(105 632.895 665.21)" fill="black"/>
<rect x="640.821" y="635.626" width="1.07194" height="828.454" transform="rotate(105 640.821 635.626)" fill="black"/>
<rect x="631.309" y="671.128" width="1.07194" height="828.454" transform="rotate(105 631.309 671.128)" fill="black"/>
<rect x="639.236" y="641.547" width="1.07194" height="828.454" transform="rotate(105 639.236 641.547)" fill="black"/>
<rect x="637.651" y="647.462" width="1.07194" height="828.454" transform="rotate(105 637.651 647.462)" fill="black"/>
<rect x="636.065" y="653.378" width="1.07194" height="828.454" transform="rotate(105 636.065 653.378)" fill="black"/>
</g>
</g>
</svg>
